<svg width="395" height="250" fill="none" xmlns="http://www.w3.org/2000/svg"><mask id="a" maskUnits="userSpaceOnUse" x="0" y="0" width="395" height="250"><path d="M1.3 1.25h392.4v247.5H1.299V1.25z" fill="#F8F7F9" stroke="#B1A6F1" stroke-width="2"/></mask><g mask="url(#a)"><path d="M31.305 740.033l196.082-97.214c6.22-3.231 55.838-27.614 204.551-99.293 148.712-71.678 141.47-174.868 119.259-217.505-12.494-25.24-39.09-78.598-45.523-90.116-6.433-11.516 4.973-22.704 11.48-26.859 67.034-39.465 134.497-95.404 115.11-138.732-77.076-172.253-122.5-275.335-160.265-330.011-37.764-54.678-80.828-36.952-93.03-32.934-9.761 3.212-84.26 44.544-120.289 64.807l-14.072-25.193c-6.435-11.518-19.238-8.58-24.837-5.673C5.747-149.06-429.766 74.079-459.623 89.588c-29.857 15.51-28.036 33.137-23.392 40.012 57.679 104.696 194.319 351.326 279.444 500.273 85.125 148.946 192.053 135.501 234.876 110.16z" fill="#FDDC9A"/><path d="M260.456-365.911c131.116-60.206 218.007 25.987 242.782 71.599 16.516-46.142 117.262-105.673 204.796-79.554 186.627 55.687 145.739 229.285 128.822 265.709-48.035 103.42-275.813 414.211-312.148 437.546C488.375 352.725 273.67 87.546 224.124-4.737 174.576-97.02 83.739-284.766 260.456-365.91z" fill="#FCB935"/><path d="M-175.941 362.818c26.791 68.402 121.285 85.503 165.183 85.503l-.068 54.41c-.036 28.501 69.872 5.183 92.776-41.455 76.576 16.841 420.63-10.365 446.352-160.642 11.536-67.4-14.608-138.618-111.296-193.029-96.687-54.41-301.821-43.39-427.355 14.25-172.108 79.026-199.08 155.46-165.592 240.963z" fill="#100A30"/></g><path d="M32.114 208h2.113v-6.375h3.819c4.065 0 5.897-2.472 5.897-5.557 0-3.085-1.832-5.523-5.932-5.523h-5.897V208zm2.113-8.25v-7.33h3.716c2.838 0 3.92 1.552 3.92 3.648 0 2.097-1.082 3.682-3.886 3.682h-3.75zM47.075 208h2.012v-8.284c0-1.773 1.397-3.068 3.306-3.068a6.18 6.18 0 011.228.136v-2.045c-.23-.017-.759-.034-1.057-.034-1.568 0-2.932.886-3.41 2.181h-.136v-1.977h-1.943V208zm13.85.273c3.545 0 5.931-2.693 5.931-6.75 0-4.091-2.386-6.784-5.931-6.784-3.546 0-5.932 2.693-5.932 6.784 0 4.057 2.386 6.75 5.932 6.75zm0-1.807c-2.694 0-3.92-2.318-3.92-4.943 0-2.625 1.226-4.978 3.92-4.978 2.693 0 3.92 2.353 3.92 4.978 0 2.625-1.227 4.943-3.92 4.943z" fill="#FF9F1C"/><path d="M30 173.827h7.538v-.82l-1.869-.562v-4.685l.645.173a8.47 8.47 0 002.362.345c2.878 0 5.025-1.706 5.025-4.664 0-2.98-2.384-4.642-6.357-4.642H30v.82l1.761.562v12.091l-1.761.562v.82zm5.67-13.495h1.352c2.126 0 2.685.561 2.685 3.282 0 2.44-.344 3.217-2.19 3.217-.216 0-.473 0-.73-.021l-1.118-.087v-6.391zM46.51 174c1.481 0 2.727-1.101 3.35-2.181 0 1.36.88 2.138 2.297 2.138 1.053 0 1.74-.389 2.298-.713v-.863c-1.18-.108-1.374-.195-1.374-.843v-3.627c0-3.779-1.568-4.902-4.446-4.902-1.91 0-4.51.799-4.51 2.764 0 .972.624 1.663 1.547 1.663.838 0 1.46-.583 1.46-1.339 0-.669-.343-1.295-1.18-1.468v-.043c.3-.087.815-.173 1.524-.173 1.589 0 2.384.367 2.384 1.9v1.598l-1.826.324c-2.92.496-4.23 1.403-4.23 3.282 0 1.511 1.16 2.483 2.706 2.483zm1.546-1.9c-.645 0-1.031-.302-1.031-1.145 0-.928.343-1.382 1.46-1.792l1.375-.496v2.418c-.494.648-1.096 1.015-1.804 1.015zm13.484 1.727h5.56v-1.187h-.923l-3.608-5.593 2.598-2.504h1.375v-1.188h-5.025v1.188h1.374l-3.565 4.404V158h-.751l-4.123 1.619v.475l1.653.929v11.617H54.71v1.187h5.562v-1.187h-.945v-2.462l1.117-1.079 2.104 3.541H61.54v1.187zm12.796 0h5.562v-1.187h-.923l-3.608-5.593 2.598-2.504h1.375v-1.188h-5.025v1.188h1.374l-3.565 4.404V158h-.751l-4.124 1.619v.475l1.654.929v11.617h-1.396v1.187h5.562v-1.187h-.945v-2.462l1.117-1.079 2.105 3.541h-1.01v1.187z" fill="#fff"/><path d="M85.28 174c3.308 0 5.648-2.721 5.648-5.506 0-2.786-2.34-5.485-5.648-5.485-3.307 0-5.648 2.699-5.648 5.485 0 2.785 2.341 5.506 5.648 5.506zm0-1.209c-1.288 0-2.061-.713-2.061-4.297 0-3.606.794-4.275 2.061-4.275s2.062.647 2.062 4.275c0 3.584-.773 4.297-2.062 4.297zm239.997 30.789h-1.151l-3.516 13.061h1.151l3.516-13.061zm1.49 11.42h1.257v-5.114c0-1.198.873-2.045 1.854-2.045.953 0 1.619.623 1.619 1.555V215h1.278v-5.327c0-1.054.661-1.832 1.811-1.832.895 0 1.662.474 1.662 1.683V215h1.257v-5.476c0-1.923-1.033-2.812-2.492-2.812-1.172 0-2.03.538-2.451 1.385h-.085c-.405-.874-1.119-1.385-2.195-1.385-1.065 0-1.853.511-2.194 1.385h-.107v-1.279h-1.214V215zm16.361.17c2.216 0 3.707-1.683 3.707-4.218 0-2.557-1.491-4.24-3.707-4.24-2.216 0-3.708 1.683-3.708 4.24 0 2.535 1.492 4.218 3.708 4.218zm0-1.129c-1.683 0-2.451-1.449-2.451-3.089 0-1.641.768-3.111 2.451-3.111s2.45 1.47 2.45 3.111c0 1.64-.767 3.089-2.45 3.089zm5.626.959h1.257v-8.182h-1.257V215zm.639-9.545c.49 0 .895-.384.895-.853 0-.468-.405-.852-.895-.852s-.895.384-.895.852c0 .469.405.853.895.853zm8.716 3.196c-.394-1.162-1.278-1.939-2.898-1.939-1.725 0-3.004.98-3.004 2.365 0 1.129.671 1.885 2.173 2.237l1.364.32c.826.191 1.215.585 1.215 1.15 0 .703-.746 1.278-1.918 1.278-1.028 0-1.673-.442-1.896-1.321l-1.194.299c.293 1.39 1.439 2.13 3.111 2.13 1.902 0 3.196-1.038 3.196-2.45 0-1.14-.714-1.859-2.173-2.216l-1.215-.298c-.969-.24-1.406-.565-1.406-1.193 0-.703.746-1.215 1.747-1.215 1.098 0 1.55.608 1.769 1.172l1.129-.319zm-113.223-30.56h-4.227l-8.727 5.795v4.296l8.523-5.659h.204V213h4.227v-34.909zM254.926 213h22.023v-3.75h-16.227v-.273l7.84-8.386c6-6.426 7.773-9.426 7.773-13.296 0-5.386-4.363-9.681-10.5-9.681-6.119 0-10.773 4.159-10.773 10.295h4.023c0-3.971 2.574-6.614 6.614-6.614 3.784 0 6.682 2.319 6.682 6 0 3.222-1.892 5.608-5.932 10.023l-11.523 12.614V213zm50.472-22.568h-14.932c1.364-5.779 5.096-8.864 9.682-8.864 2.932 0 5.454 1.227 7.636 3.205l1.636-3.546c-2.454-2.318-5.659-3.613-9.272-3.613-7.006 0-12.29 4.806-13.858 12.818h-3.46l-1.228 3.409h4.279a28.09 28.09 0 000 3.409h-3.051l-1.228 3.409h4.688c1.568 8.011 6.852 12.818 13.858 12.818 3.477 0 6.818-1.159 9.204-3.409l-1.704-3.545c-1.978 1.704-4.5 3-7.5 3-4.586 0-8.318-3.085-9.682-8.864h10.432l1.568-3.409h-12.494a27.672 27.672 0 010-3.409h13.858l1.568-3.409z" fill="#fff"/></svg>