<svg width="18" height="20" fill="none" xmlns="http://www.w3.org/2000/svg"><path fill-rule="evenodd" clip-rule="evenodd" d="M4.385 5.385C4.385 2.8 6.415.77 9 .77c2.585 0 4.615 2.03 4.615 4.615C13.615 7.97 11.585 10 9 10c-2.585 0-4.615-2.03-4.615-4.615zm12.923 11.077v1.846c0 .554-.37.923-.923.923-.554 0-.923-.37-.923-.923v-1.846c0-1.57-1.2-2.77-2.77-2.77H5.308c-1.57 0-2.77 1.2-2.77 2.77v1.846c0 .554-.369.923-.923.923-.553 0-.923-.37-.923-.923v-1.846c0-2.585 2.031-4.615 4.616-4.615h7.384c2.585 0 4.616 2.03 4.616 4.615zM9 8.154c-1.57 0-2.77-1.2-2.77-2.77 0-1.568 1.2-2.768 2.77-2.768s2.77 1.2 2.77 2.769c0 1.57-1.2 2.77-2.77 2.77z" fill="#fff"/></svg>